<svg xmlns="http://www.w3.org/2000/svg" viewBox="0 0 200 200" width="200" height="200" role="img" aria-label="OpenLimiter">
  <path d="M 100.000 28.000 A 72 72 0 0 1 172.000 100.000" fill="none" stroke="#0866FF" stroke-opacity="1.000" stroke-width="34" stroke-linecap="butt"/>
  <path d="M 171.299 110.020 A 72 72 0 0 1 121.589 168.687" fill="none" stroke="#0866FF" stroke-opacity="0.893" stroke-width="34" stroke-linecap="butt"/>
  <path d="M 111.819 171.023 A 72 72 0 0 1 56.819 157.614" fill="none" stroke="#0866FF" stroke-opacity="0.786" stroke-width="34" stroke-linecap="butt"/>
  <path d="M 49.221 151.044 A 72 72 0 0 1 29.558 114.898" fill="none" stroke="#0866FF" stroke-opacity="0.679" stroke-width="34" stroke-linecap="butt"/>
  <path d="M 28.170 104.949 A 72 72 0 0 1 32.289 75.521" fill="none" stroke="#0866FF" stroke-opacity="0.571" stroke-width="34" stroke-linecap="butt"/>
  <path d="M 36.355 66.336 A 72 72 0 0 1 49.052 49.125" fill="none" stroke="#0866FF" stroke-opacity="0.464" stroke-width="34" stroke-linecap="butt"/>
  <path d="M 56.628 42.529 A 72 72 0 0 1 69.813 34.634" fill="none" stroke="#0866FF" stroke-opacity="0.357" stroke-width="34" stroke-linecap="butt"/>
  <path d="M 79.204 31.069 A 72 72 0 0 1 89.980 28.701" fill="none" stroke="#0866FF" stroke-opacity="0.250" stroke-width="34" stroke-linecap="butt"/>
</svg>
